<svg xmlns="http://www.w3.org/2000/svg" version="1.1" id="Layer_1" viewBox="0 0 512 512" width="512" height="512"><defs>
    <style>
      .st0 {
        fill: #22818e;
      }
    </style>
  </defs><path class="st0" d="M500.63,165.68c-5.74-36.51-34.81-62.91-61.52-85.77C382.93,34.11,308.78,10.89,236.93,7.42c-31.2.32-62.45,5.09-91.73,15.99-14.35,5.34-17.63,10.46-29.27,16.43-5.77,2.96-10.71,6.46-15.81,10.43-12.86,9.99-9.82,10.1-19.46,19.89-5.62,3.71-11.09,16-14.78,21.4-11.45,15.73-17.24,38.37-22.24,56.98-3.43,11.38-9.92,37.74-13.16,49.42-5.94,19.26-13.47,39.22,6.79,52.67,19.21,13.41,4.1,23.03-2.72,37.46-5.61,14.55-3.27,20.93-12.95,34.9-6.39,7.61-9.21,19.5-.39,26.22,17.78,15.74-29.87,71.02-3.06,122.33,8.8,17.67,34.02,23.79,47.62,28.46,37.08,10,89.91,2.56,125.13-11.94,21.54-10.09,27.02-28.63,39.67-44.17,6.48-8.27,16.51-12.6,26.52-15.05,13.32-3.18,31.58-6.86,44.89-9.33,90.56-15.09,155-80.75,182.97-165.94,8.92-28.5,21.9-57.32,15.66-87.91l.03.02Z"></path></svg>