<?xml version="1.0" encoding="UTF-8"?><svg id="Logo" xmlns="http://www.w3.org/2000/svg" viewBox="0 0 258.64 57.26"><defs><style>.cls-1{fill:#1d1d1b;}.cls-2{fill:#fff;}</style></defs><path class="cls-1" d="M48.59,20.83l-.04-1.16-4.8,1.72.05,1.26,4.9,1.45-.04-1.1-1.09-.3-.06-1.51,1.07-.34ZM46.7,21.42l.04,1.11-2.04-.52h0s2-.59,2-.59Z"/><path class="cls-1" d="M48.8,18.33l.35-1.09-1.87-.6c.13-.4.17-.54.86-.52l1.35.04.37-1.14h-1.66c-.61-.02-.83.05-.98.37h-.01c.11-.95-.64-1.22-.83-1.29-.85-.28-1.39.26-1.64,1.02l-.56,1.69,4.62,1.5ZM45.31,16.04l.11-.33c.19-.58.6-.51.79-.45.33.11.54.42.41.83l-.12.33-1.19-.38Z"/><polygon class="cls-1" points="50.82 13.54 51.47 12.61 48.22 10.32 48.82 9.46 48.1 8.96 46.23 11.62 46.95 12.13 47.56 11.26 50.82 13.54"/><path class="cls-1" d="M51.76,5.65c-.38.2-.64.32-.98.61-1.24,1.04-.5,2.03-.4,2.14,1.11,1.33,2.28-.25,2.89.46.25.3.1.67-.17.9-.33.28-.66.34-1.01.45l.56.77c.2-.09.68-.31,1.13-.69.74-.62.94-1.52.35-2.22-1.11-1.32-2.31.22-2.88-.45-.23-.28-.13-.58.16-.82.23-.2.6-.36.89-.43l-.54-.73Z"/><path class="cls-1" d="M60.54,2.18c-.2-.04-.59-.11-1.3.06-.96.22-1.97,1.18-1.57,2.91.35,1.5,1.48,2.26,2.77,1.96.6-.14.97-.34,1.14-.44l-.27-.98c-.1.07-.37.35-.91.48-.71.16-1.38-.34-1.6-1.26-.22-.95.11-1.67.85-1.84.51-.12.84,0,1.03.05l-.16-.93Z"/><path class="cls-1" d="M63.1,4.21c-.17,1.42.35,2.57,1.74,2.74,1.39.17,2.18-.82,2.35-2.24.18-1.42-.35-2.57-1.74-2.74-1.38-.18-2.17.82-2.35,2.24M64.26,4.36c.12-.92.44-1.65,1.09-1.57.66.08.8.86.69,1.79-.11.93-.44,1.65-1.09,1.57-.66-.08-.79-.86-.68-1.78"/><path class="cls-1" d="M68.82,5.91c-.54,1.07-.22,1.95.75,2.45.98.49,1.88.24,2.42-.83l1.41-2.76-1.01-.52-1.49,2.92c-.22.44-.51.62-.92.41-.41-.21-.44-.56-.21-.99l1.48-2.92-1.01-.52-1.41,2.76Z"/><polygon class="cls-1" points="72.35 9.88 73.04 10.6 75.57 8.16 75.58 8.17 74.02 11.61 74.96 12.58 78.45 9.21 77.75 8.49 75.34 10.83 75.33 10.82 76.76 7.47 75.84 6.5 72.35 9.88"/><path class="cls-1" d="M81.32,14.62c-.01-.21-.03-.61-.35-1.26-.43-.89-1.59-1.65-3.19-.87-1.38.67-1.87,1.94-1.29,3.14.27.56.55.87.69,1.02l.89-.48c-.09-.08-.42-.28-.66-.78-.32-.65.02-1.42.86-1.84.88-.43,1.65-.26,1.99.43.23.47.19.81.18,1.01l.88-.36Z"/><rect class="cls-1" x="77.47" y="17.86" width="4.85" height="1.14" transform="translate(-1.99 14.27) rotate(-10.08)"/><polygon class="cls-1" points="77.75 21.16 77.56 23.9 78.43 23.96 78.54 22.36 82.51 22.64 82.59 21.49 77.75 21.16"/><polygon class="cls-1" points="48.1 32.49 49.47 34.12 49.78 33.85 48.68 32.56 50.15 31.32 51.15 32.52 51.46 32.25 50.46 31.06 51.78 29.94 52.83 31.2 53.14 30.93 51.81 29.36 48.1 32.49"/><polygon class="cls-1" points="51.54 36.09 51.88 36.31 54.27 32.76 54.28 32.76 53.58 37.46 54.04 37.78 56.75 33.74 56.42 33.52 54 37.11 53.99 37.1 54.72 32.38 54.26 32.06 51.54 36.09"/><path class="cls-1" d="M59.06,37.34l.83.24-.47,1.64c-.24.05-.44.02-.68-.04-1.23-.34-1.29-1.61-1.05-2.46.42-1.47,1.46-1.73,2.13-1.53.36.1.76.37.9.57l.15-.45c-.12-.12-.54-.4-.92-.51-1.31-.37-2.35.56-2.69,1.75-.25.89-.29,2.54,1.34,3.02.39.11.76.15,1.15.05l.66-2.31-1.25-.35-.11.38Z"/><polygon class="cls-1" points="62.58 40.07 64.59 40.07 64.59 39.67 63.01 39.67 63.01 35.22 62.58 35.22 62.58 40.07"/><path class="cls-1" d="M66.56,39.85l.41-.12.05-1.42,1.86-.52.77,1.17.44-.12-2.89-4.23-.44.13-.21,5.12ZM67.11,35.12h.01s1.53,2.31,1.53,2.31l-1.61.48.07-2.79Z"/><polygon class="cls-1" points="72.18 37.79 72.52 37.57 70.19 33.97 70.2 33.97 74.24 36.45 74.71 36.16 72.06 32.07 71.72 32.3 74.07 35.92 74.05 35.92 70.01 33.42 69.54 33.71 72.18 37.79"/><path class="cls-1" d="M77.11,33.88l.46-.58c.96-1.24.53-2.46-.58-3.33-1.23-.97-2.32-.85-3.31.43l-.39.49,3.83,2.99ZM73.88,30.8l.23-.28c1-1.29,2.07-.62,2.67-.13.96.75,1.22,1.71.56,2.56l-.27.36-3.18-2.51Z"/><path class="cls-1" d="M110.46,21.01h-.05l-2.33,6.65h4.71l-2.33-6.65ZM108.68,17.77h3.65l6.33,16.12h-3.58l-1.39-3.69h-6.53l-1.41,3.69h-3.35l6.28-16.12Z"/><path class="cls-1" d="M123.57,24.66h1.07c1.59,0,3.42-.23,3.42-2.24s-1.8-2.1-3.42-2.1h-1.07v4.34ZM120.34,17.77h3.49c3.46,0,7.6-.11,7.6,4.37,0,1.89-1.27,3.46-3.32,3.74v.04c.88.07,1.39.95,1.71,1.66l2.59,6.31h-3.6l-1.94-5.04c-.47-1.2-.88-1.66-2.24-1.66h-1.04v6.7h-3.23v-16.12Z"/><polygon class="cls-1" points="137.59 20.31 132.97 20.31 132.97 17.77 145.45 17.77 145.45 20.31 140.82 20.31 140.82 33.9 137.59 33.9 137.59 20.31"/><path class="cls-1" d="M156.16,20.73c-1.02-.44-2.15-.69-3.28-.69s-2.54.49-2.54,2.24c0,2.79,7.07,1.62,7.07,7.02,0,3.53-2.8,4.88-6.05,4.88-1.75,0-2.54-.23-4.13-.62l.3-2.91c1.11.6,2.38.99,3.65.99s2.86-.62,2.86-2.08c0-3.07-7.07-1.8-7.07-7.14,0-3.6,2.79-4.92,5.64-4.92,1.38,0,2.68.19,3.85.58l-.3,2.66Z"/><path class="cls-1" d="M178.03,33.67c-1.18.28-2.45.5-3.67.5-5.22,0-8.85-2.61-8.85-8.06s3.37-8.61,8.85-8.61c1.06,0,2.47.21,3.65.67l-.23,2.72c-1.22-.69-2.33-.85-3.49-.85-3.33,0-5.4,2.54-5.4,5.84s2.03,5.75,5.47,5.75c1.27,0,2.77-.28,3.53-.67l.14,2.7Z"/><path class="cls-1" d="M187.42,31.63c3.3,0,4.53-2.93,4.53-5.84s-1.32-5.75-4.53-5.75-4.53,2.91-4.53,5.75,1.22,5.84,4.53,5.84M187.42,17.5c5.06,0,7.9,3.42,7.9,8.29s-2.8,8.38-7.9,8.38-7.9-3.44-7.9-8.38,2.77-8.29,7.9-8.29"/><path class="cls-1" d="M197.47,17.77h3.23v9.31c0,2.75.88,4.55,3.35,4.55s3.35-1.8,3.35-4.55v-9.31h3.23v10.3c0,4.32-2.45,6.1-6.58,6.1s-6.58-1.78-6.58-6.1v-10.3Z"/><polygon class="cls-1" points="213.06 17.77 217.03 17.77 223.17 29.83 223.22 29.83 223.22 17.77 226.31 17.77 226.31 33.89 222.36 33.89 216.2 21.84 216.15 21.84 216.15 33.89 213.06 33.89 213.06 17.77"/><path class="cls-1" d="M240.93,33.67c-1.18.28-2.45.5-3.67.5-5.22,0-8.85-2.61-8.85-8.06s3.37-8.61,8.85-8.61c1.06,0,2.47.21,3.64.67l-.23,2.72c-1.23-.69-2.33-.85-3.49-.85-3.32,0-5.41,2.54-5.41,5.84s2.03,5.75,5.47,5.75c1.27,0,2.77-.28,3.53-.67l.14,2.7Z"/><rect class="cls-1" x="243.37" y="17.77" width="3.23" height="16.12"/><polygon class="cls-1" points="249.15 17.77 252.38 17.77 252.38 31.35 258.64 31.35 258.64 33.89 249.15 33.89 249.15 17.77"/><polygon class="cls-1" points="102.45 40.87 111.96 40.87 111.96 43.41 105.68 43.41 105.68 47.38 111.43 47.38 111.43 49.92 105.68 49.92 105.68 54.45 112.01 54.45 112.01 56.99 102.45 56.99 102.45 40.87"/><polygon class="cls-1" points="114.66 40.87 118.64 40.87 124.78 52.92 124.82 52.92 124.82 40.87 127.92 40.87 127.92 56.99 123.97 56.99 117.8 44.93 117.76 44.93 117.76 56.99 114.66 56.99 114.66 40.87"/><path class="cls-1" d="M143.51,43.99c-1.25-.58-2.86-.85-4.16-.85-3.76,0-5.84,2.54-5.84,5.84s2.03,5.75,5.47,5.75c.88,0,1.57-.09,2.12-.23v-4.2h-3.42v-2.54h6.51v8.68c-1.71.46-3.49.83-5.22.83-5.22,0-8.84-2.61-8.84-8.06s3.37-8.61,8.84-8.61c1.87,0,3.35.25,4.74.67l-.21,2.72Z"/><polygon class="cls-1" points="146.78 40.87 150.02 40.87 150.02 54.45 156.27 54.45 156.27 56.99 146.78 56.99 146.78 40.87"/><path class="cls-1" d="M165.76,44.1h-.04l-2.34,6.65h4.71l-2.33-6.65ZM163.98,40.87h3.65l6.33,16.12h-3.58l-1.39-3.7h-6.53l-1.41,3.7h-3.35l6.28-16.12Z"/><polygon class="cls-1" points="175.53 40.87 179.5 40.87 185.65 52.92 185.69 52.92 185.69 40.87 188.79 40.87 188.79 56.99 184.84 56.99 178.67 44.93 178.62 44.93 178.62 56.99 175.53 56.99 175.53 40.87"/><path class="cls-1" d="M194.66,54.45h1.8c2.7,0,5.31-2.01,5.31-5.52s-2.61-5.52-5.31-5.52h-1.8v11.04ZM191.43,40.87h4.41c4.94,0,9.31,1.66,9.31,8.06s-4.37,8.06-9.31,8.06h-4.41v-16.12Z"/><path class="cls-1" d="M247.96,3.39h-.7l1.84,5.24-.13.46c-.2.67-.38,1.13-.94,1.13-.23,0-.36-.04-.47-.08l-.06.55c.21.05.46.08.69.08.72,0,1.09-.71,1.33-1.42l2.07-5.95h-.67l-1.49,4.32h0l-1.45-4.32ZM245.88,5.98c0,1.01-.31,2.16-1.54,2.16-1.14,0-1.54-1.22-1.54-2.16s.37-2.16,1.54-2.16,1.54,1.16,1.54,2.16M242.17,8.57h.64v-.82h.02c.35.66.87.94,1.62.94,1.42,0,2.13-1.18,2.13-2.71s-.61-2.71-2.13-2.71c-1.02,0-1.53.74-1.62.99h-.02V.95h-.64v7.62ZM238.71,3.39h-.64v.59h-.02c-.48-.62-.93-.71-1.62-.71-1.52,0-2.13,1.14-2.13,2.71,0,1.15.53,2.59,2.18,2.59.66,0,1.23-.26,1.58-1.01h.02c0,1.46-.14,2.66-1.79,2.66-.56,0-1.13-.16-1.52-.37l-.05.64c.26.08.88.27,1.56.27,1.78,0,2.43-1.18,2.43-2.62V3.39ZM235,5.98c0-1.01.32-2.16,1.54-2.16s1.53.91,1.53,2.16c0,.94-.42,2.04-1.57,2.04-1.09,0-1.49-1.03-1.49-2.04M228.83,8.57h.64v-2.86c0-.86.36-1.89,1.53-1.89.88,0,1.23.63,1.23,1.6v3.15h.64v-3.31c0-1.14-.49-1.99-1.77-1.99-1.08,0-1.46.58-1.68,1.04h-.02v-.92h-.62c.04.42.04.82.04,1.22v3.96ZM227.12,1.15h-.64v.85h.64v-.85ZM226.48,8.57h.64V3.39h-.64v5.18ZM221.1,5.98c0-1.01.31-2.16,1.53-2.16,1.14,0,1.54,1.22,1.54,2.16s-.4,2.16-1.54,2.16c-1.22,0-1.53-1.16-1.53-2.16M224.8.95h-.64v3.31h-.02c-.09-.25-.6-.99-1.62-.99-1.52,0-2.13,1.14-2.13,2.71s.71,2.71,2.13,2.71c.74,0,1.27-.28,1.62-.94h.02v.82h.64V.95ZM214.91,8.57h.64v-2.86c0-.86.37-1.89,1.54-1.89.88,0,1.23.63,1.23,1.6v3.15h.64v-3.31c0-1.14-.49-1.99-1.77-1.99-1.08,0-1.46.58-1.68,1.04h-.02v-.92h-.62c.04.42.04.82.04,1.22v3.96ZM213.19,3.39h-.64v2.86c0,.86-.36,1.89-1.53,1.89-.88,0-1.23-.63-1.23-1.6v-3.15h-.64v3.31c0,1.14.49,1.99,1.77,1.99,1.08,0,1.46-.58,1.68-1.05h.02v.92h.62c-.04-.42-.04-.82-.04-1.22v-3.96ZM206.11,8.57h.64V3.93h1.17v-.55h-1.17v-.45c0-.62-.09-1.57.78-1.57.18,0,.37.04.51.11l.04-.56c-.12-.07-.4-.1-.6-.1-1.33,0-1.37,1.1-1.37,2.18v.38h-1.05v.55h1.05v4.63ZM202.61,3.47c-.18-.06-.63-.2-1.25-.2-1.53,0-2.56,1.12-2.56,2.71,0,1.44.81,2.71,2.48,2.71.49,0,.89-.03,1.33-.18l-.06-.6c-.39.14-.76.23-1.17.23-1.17,0-1.88-.98-1.88-2.16,0-1.26.7-2.16,1.95-2.16.35,0,.76.11,1.11.26l.05-.61ZM197.41,1.15h-.64v.85h.64v-.85ZM196.77,8.57h.64V3.39h-.64v5.18ZM194.42,8.57h.64V.95h-.64v7.62ZM192.26,5.98c0,1.01-.31,2.16-1.53,2.16-1.14,0-1.53-1.22-1.53-2.16s.37-2.16,1.53-2.16,1.53,1.16,1.53,2.16M188.55,8.57h.64v-.82h.02c.35.66.87.94,1.62.94,1.42,0,2.13-1.18,2.13-2.71s-.61-2.71-2.13-2.71c-1.02,0-1.52.74-1.62.99h-.02V.95h-.64v7.62ZM186.87,3.39h-.64v2.86c0,.86-.36,1.89-1.53,1.89-.88,0-1.23-.63-1.23-1.6v-3.15h-.64v3.31c0,1.14.49,1.99,1.77,1.99,1.08,0,1.46-.58,1.68-1.05h.02v.92h.62c-.04-.42-.04-.82-.04-1.22v-3.96ZM180.69,5.98c0,1.01-.32,2.16-1.53,2.16-1.14,0-1.54-1.22-1.54-2.16s.4-2.16,1.54-2.16c1.22,0,1.53,1.16,1.53,2.16M176.98,10.7h.64v-3.02h.02c.32.67.8,1,1.62,1,1.42,0,2.13-1.18,2.13-2.71s-.61-2.71-2.13-2.71c-1.1,0-1.49.78-1.66,1.06h-.02l.04-.94h-.64v7.31ZM173.52,3.39h-.64v.59h-.02c-.48-.62-.92-.71-1.62-.71-1.52,0-2.13,1.14-2.13,2.71,0,1.15.53,2.59,2.18,2.59.66,0,1.23-.26,1.58-1.01h.02c0,1.46-.14,2.66-1.79,2.66-.56,0-1.13-.16-1.52-.37l-.05.64c.26.08.88.27,1.56.27,1.78,0,2.43-1.18,2.43-2.62V3.39ZM169.81,5.98c0-1.01.32-2.16,1.53-2.16s1.54.91,1.54,2.16c0,.94-.42,2.04-1.58,2.04-1.09,0-1.49-1.03-1.49-2.04M163.64,8.57h.64v-2.86c0-.86.37-1.89,1.54-1.89.88,0,1.23.63,1.23,1.6v3.15h.64v-3.31c0-1.14-.49-1.99-1.77-1.99-1.08,0-1.46.58-1.68,1.04h-.02v-.92h-.62c.04.42.04.82.04,1.22v3.96ZM161.93,1.15h-.64v.85h.64v-.85ZM161.29,8.57h.64V3.39h-.64v5.18ZM156.76,8.45c.46.18.95.24,1.45.24.78,0,1.81-.38,1.81-1.47,0-1.7-2.55-1.58-2.55-2.54,0-.66.46-.86,1.12-.86.36,0,.81.09,1.15.24l.06-.56c-.46-.17-1-.23-1.28-.23-.85,0-1.69.38-1.69,1.41,0,1.5,2.49,1.31,2.49,2.54,0,.59-.54.92-1.15.92-.5,0-.97-.13-1.35-.33l-.06.63ZM155.5,3.39h-.64v2.86c0,.86-.37,1.89-1.53,1.89-.88,0-1.23-.63-1.23-1.6v-3.15h-.64v3.31c0,1.14.49,1.99,1.77,1.99,1.08,0,1.46-.58,1.68-1.05h.02v.92h.62c-.04-.42-.04-.82-.04-1.22v-3.96ZM144.23,5.98c0-1.01.31-2.16,1.53-2.16,1.14,0,1.53,1.22,1.53,2.16s-.4,2.16-1.53,2.16c-1.22,0-1.53-1.16-1.53-2.16M147.93.95h-.64v3.31h-.02c-.09-.25-.6-.99-1.62-.99-1.52,0-2.13,1.14-2.13,2.71s.71,2.71,2.13,2.71c.74,0,1.27-.28,1.62-.94h.02v.82h.64V.95ZM138.87,5.61c0-.85.58-1.8,1.52-1.8s1.32.89,1.32,1.8h-2.84ZM142.03,7.75c-.3.19-.99.39-1.45.39-1.12,0-1.71-.88-1.71-1.98h3.54v-.32c0-1.39-.6-2.57-2.06-2.57-1.31,0-2.18,1.13-2.18,2.71s.64,2.71,2.36,2.71c.48,0,1.06-.1,1.5-.28v-.65ZM137.32,3.39h-1.18v-1.47l-.64.22v1.25h-1.02v.55h1.02v3.03c0,.94.04,1.73,1.18,1.73.32,0,.63-.08.78-.14l-.04-.53c-.18.07-.35.12-.59.12-.52,0-.69-.39-.69-.85v-3.35h1.18v-.55ZM131.27,8.57h.64v-2.56c0-.93.27-2.07,1.29-2.07.16,0,.33.02.47.06v-.67c-.11-.03-.29-.06-.45-.06-.66,0-1.1.54-1.33,1.12h-.02v-.99h-.64c.04.37.04.59.04,1.16v4.02ZM125.76,5.98c0-1.2.6-2.16,1.72-2.16s1.72.97,1.72,2.16-.6,2.16-1.72,2.16-1.72-.96-1.72-2.16M125.06,5.98c0,1.41.74,2.71,2.42,2.71s2.42-1.3,2.42-2.71-.74-2.71-2.42-2.71-2.42,1.3-2.42,2.71M123.23,5.98c0,1.01-.32,2.16-1.53,2.16-1.14,0-1.54-1.22-1.54-2.16s.4-2.16,1.54-2.16c1.22,0,1.53,1.16,1.53,2.16M119.52,10.7h.64v-3.02h.02c.31.67.8,1,1.62,1,1.42,0,2.13-1.18,2.13-2.71s-.61-2.71-2.13-2.71c-1.1,0-1.49.78-1.66,1.06h-.02l.04-.94h-.64v7.31ZM117.4,5.98c0,1.01-.32,2.16-1.53,2.16-1.14,0-1.54-1.22-1.54-2.16s.4-2.16,1.54-2.16c1.22,0,1.53,1.16,1.53,2.16M113.69,10.7h.64v-3.02h.02c.32.67.8,1,1.62,1,1.42,0,2.13-1.18,2.13-2.71s-.61-2.71-2.13-2.71c-1.1,0-1.49.78-1.66,1.06h-.02l.04-.94h-.64v7.31ZM112.01,3.39h-.64v2.86c0,.86-.36,1.89-1.53,1.89-.88,0-1.23-.63-1.23-1.6v-3.15h-.64v3.31c0,1.14.49,1.99,1.77,1.99,1.08,0,1.46-.58,1.68-1.05h.02v.92h.62c-.04-.42-.04-.82-.04-1.22v-3.96ZM102.61,8.38c.37.16.91.3,1.6.3,1.1,0,2.33-.57,2.33-2,0-2.07-3.25-2.08-3.25-3.5,0-.91.8-1.22,1.54-1.22.48,0,.98.09,1.29.26l.11-.64c-.49-.18-1.05-.23-1.39-.23-1.25,0-2.24.71-2.24,1.85,0,1.86,3.25,2.03,3.25,3.42,0,1.01-.72,1.45-1.6,1.45-.66,0-1.15-.15-1.56-.42l-.07.72Z"/><rect class="cls-1" x="92.12" width=".75" height="56.99"/><path class="cls-1" d="M2.46,50.42h1.76v5.07h3.07v1.55H2.46v-6.62Z"/><path class="cls-1" d="M10.84,57.2c-.5,0-.95-.09-1.37-.26-.42-.18-.78-.42-1.09-.72s-.55-.67-.72-1.1c-.17-.43-.26-.89-.26-1.39s.09-.97.26-1.39c.17-.43.41-.79.72-1.1.31-.31.67-.55,1.09-.72.42-.17.88-.26,1.37-.26s.96.09,1.38.26c.42.17.79.41,1.09.72.3.31.54.68.71,1.1.17.43.26.89.26,1.39s-.09.97-.26,1.39c-.17.43-.41.79-.71,1.1-.3.31-.67.55-1.09.72-.42.18-.88.26-1.38.26ZM10.84,55.55c.26,0,.49-.05.69-.14.2-.1.37-.23.51-.39.14-.17.24-.36.32-.59.07-.22.11-.46.11-.71s-.04-.49-.11-.71c-.07-.22-.18-.42-.32-.59-.14-.17-.31-.3-.51-.39-.2-.1-.43-.14-.69-.14s-.49.05-.69.14c-.2.1-.37.23-.51.39-.14.17-.24.36-.32.59-.07.23-.11.46-.11.71s.04.49.11.71c.07.23.18.42.32.59.14.17.31.3.51.39.2.1.43.14.69.14Z"/><path class="cls-1" d="M16.43,51.96h-2.03v-1.54h5.83v1.54h-2.01v5.08h-1.78v-5.08Z"/><path class="cls-1" d="M22.49,51.96h-2.03v-1.54h5.83v1.54h-2.01v5.08h-1.78v-5.08Z"/><path class="cls-1" d="M26.7,50.42h4.76v1.52h-3.01v1.02h2.47v1.43h-2.47v1.13h3.22v1.52h-4.97v-6.62Z"/><path class="cls-1" d="M32.4,50.42h2.74c.36,0,.68.05.97.14.29.09.53.23.74.41.21.18.36.41.48.68.11.27.17.59.17.94,0,.44-.1.82-.29,1.14-.19.32-.45.58-.76.77l1.42,2.54h-1.89l-1.12-2.25h-.73v2.25h-1.72v-6.62ZM34.97,53.41c.23,0,.42-.07.57-.21.15-.14.22-.33.22-.57,0-.25-.07-.45-.21-.6-.14-.15-.33-.22-.59-.22h-.84v1.6h.85Z"/><path class="cls-1" d="M39.81,54.4l-2.35-3.98h2.01l1.29,2.36,1.21-2.36h1.96l-2.36,3.97v2.65h-1.76v-2.64Z"/><path class="cls-1" d="M45.71,50.42h4.61v1.54h-2.86v1.28h2.21v1.45h-2.21v2.35h-1.76v-6.62Z"/><path class="cls-1" d="M50.76,50.42h1.76v3.88c0,.36.08.66.25.89s.45.35.84.35.67-.12.83-.35c.17-.23.25-.53.25-.89v-3.88h1.78v4.04c0,.42-.07.81-.21,1.15s-.34.63-.59.87-.56.42-.9.55c-.35.13-.73.19-1.15.19s-.8-.06-1.15-.19c-.35-.13-.65-.31-.91-.54-.25-.23-.45-.52-.59-.86-.14-.34-.21-.73-.21-1.16v-4.04Z"/><path class="cls-1" d="M57.42,50.42h1.6l2.54,3.69v-3.69h1.74v6.62h-1.5l-2.64-3.8v3.8h-1.74v-6.62Z"/><path class="cls-1" d="M64.28,50.42h2.54c.51,0,.98.07,1.41.2.43.13.81.33,1.13.61.32.27.57.62.74,1.04s.27.92.27,1.5-.09,1.03-.27,1.43c-.18.41-.43.75-.75,1.02-.32.27-.69.48-1.13.62-.44.14-.91.2-1.41.2h-2.53v-6.62ZM66.75,55.49c.58,0,1.02-.16,1.33-.49.31-.33.47-.75.47-1.28,0-.26-.04-.5-.11-.72-.07-.21-.18-.4-.33-.56-.15-.16-.34-.28-.56-.36-.22-.09-.49-.13-.8-.13h-.71v3.53h.71Z"/><path class="cls-1" d="M71.05,50.42h4.76v1.52h-3.01v1.02h2.47v1.43h-2.47v1.13h3.22v1.52h-4.97v-6.62Z"/><path class="cls-1" d="M76.75,50.42h2.54c.51,0,.98.07,1.41.2.43.13.81.33,1.13.61.32.27.57.62.74,1.04s.27.92.27,1.5-.09,1.03-.27,1.43c-.18.41-.43.75-.75,1.02-.32.27-.69.48-1.13.62-.44.14-.91.2-1.41.2h-2.53v-6.62ZM79.22,55.49c.58,0,1.02-.16,1.33-.49.31-.33.47-.75.47-1.28,0-.26-.04-.5-.11-.72-.07-.21-.18-.4-.33-.56-.15-.16-.34-.28-.56-.36-.22-.09-.49-.13-.8-.13h-.71v3.53h.71Z"/><path class="cls-1" d="M28.47,18.89c-.36,0-1.14.21-1.56.62.16-1.82-.52-3.16-1.76-3.63-.78-.26-1.61-.21-2.33.1l-1.01-2.44c.93-2.28,2.57-5.06,2.57-7.35,0-1.76-.89-3.06-2.6-3.06-1.04,0-2.18.85-3.05,1.95-1.19-2.64-2.44-3.89-3.78-3.89-2.13,0-3.01,2.13-3.01,3.94,0,1.5.41,3.99,2.02,7.52-1.09,2.44-1.92,4.46-2.91,7.57-1.3-1.35-3.42-2.7-6.12-2.7-1.4,0-2.59.36-3.53.99-.88.62-1.4,1.45-1.4,2.33,0,1.3.88,2.18,2.23,2.54,2.33.62,3.37,2.49,4.25,6.17,1.61,6.64,5.76,10.63,12.13,10.63,6.74,0,12.24-5.5,12.24-12.24,0-.98-.1-1.76-.26-2.64.21-.52.36-1.09.47-1.55.57-2.85-.52-4.88-2.59-4.88"/><path class="cls-2" d="M24.62,17.33c1.08.5,1.17,2.76.08,5.45-.88,2.6-2.15,4.18-3.33,4.19-.93,0-1.71-.66-1.71-2.42,0-3.32,2.73-8.25,4.97-7.22"/><path class="cls-2" d="M13.43,5.15c0-1.09.47-2.39,1.51-2.39.73,0,1.61,1.14,2.64,3.42-.88,1.14-1.82,2.65-2.75,4.51-.94-2.44-1.4-4.25-1.4-5.55"/><path class="cls-2" d="M18.62,38.66c-5.44,0-9.18-3.79-10.63-9.44-.98-3.89-2.23-6.48-5.39-7.31-.36-.1-1.04-.36-1.04-1.04,0-.73,1.19-1.77,3.37-1.77,2.58,0,4.72,1.59,6.17,3.69l1.11-.41c.16-2.13,1.25-5.03,3.14-9.09,2.38-5.14,4.81-8.64,6.42-8.59.51.01,1.12.62,1.12,1.5,0,2.13-1.88,5.31-3.51,8.78-.17.35-.91,1.99-.91,1.99l1.07.46c.35-.59,1.08-2.01,1.18-2.25l.8,1.78c-1.71,1.45-3.21,4.88-3.21,7.57,0,1.97.88,3.2,2.18,3.62,1.19.37,2.33.02,3.22-1.02.21,1.25,1.04,2.32,2.65,2.32,1.42,0,2.35-.82,3.06-2.22.26,6.54-5.14,11.41-10.79,11.41"/><path class="cls-2" d="M29.66,23.56c-.36,2.18-1.69,4.6-3.32,4.6s-1.46-2.06-1.1-3.31c.57-2.23,2.09-4.56,3.23-4.56,1.04,0,1.5,1.4,1.19,3.27"/><path class="cls-1" d="M24.15,34.49c-4.62,2.62-8.91.95-10.53-3.83l1.34-.63c1.32,3.9,5.12,4.96,8.64,3.13l.55,1.33Z"/><path class="cls-1" d="M22.9,24.5c0,.67-.54,1.21-1.2,1.21s-1.21-.54-1.21-1.21.54-1.2,1.21-1.2,1.2.54,1.2,1.2"/><path class="cls-1" d="M27.97,25.96c0,.6-.48,1.08-1.08,1.08s-1.08-.49-1.08-1.08.49-1.08,1.08-1.08,1.08.49,1.08,1.08"/><path class="cls-1" d="M25.9,6.58c-.15,0-.28-.03-.41-.08-.13-.05-.24-.13-.33-.22-.09-.09-.17-.21-.22-.33-.05-.13-.08-.26-.08-.41s.03-.28.08-.41c.05-.13.13-.24.22-.33.09-.09.2-.17.33-.22.13-.05.26-.08.41-.08s.28.03.41.08c.13.06.24.13.33.22.09.09.17.2.22.33.05.13.08.26.08.41s-.03.28-.08.41c-.05.13-.13.24-.22.33-.09.09-.2.17-.33.22-.13.05-.26.08-.41.08ZM25.9,6.38c.12,0,.23-.02.33-.06.1-.04.19-.1.26-.18.07-.08.13-.16.17-.27.04-.1.06-.21.06-.33s-.02-.23-.06-.33c-.04-.1-.1-.19-.17-.27-.07-.08-.16-.14-.26-.18-.1-.04-.21-.07-.32-.07s-.23.02-.33.07c-.1.04-.19.1-.26.18-.07.08-.13.16-.17.27-.04.1-.06.21-.06.33s.02.23.06.33c.04.1.1.19.17.27.07.08.16.14.26.18.1.04.21.06.33.06ZM25.54,5h.41c.07,0,.12,0,.17.03.05.02.09.04.12.07.03.03.05.06.07.1.01.04.02.07.02.11,0,.07-.02.13-.05.18-.03.05-.09.1-.16.12l.26.44h-.23l-.24-.41h-.17v.41h-.2v-1.06ZM25.94,5.49c.06,0,.11-.01.13-.05.03-.03.04-.07.04-.12,0-.05-.01-.09-.05-.12-.03-.03-.08-.04-.14-.04h-.19v.32h.2Z"/></svg>