<?xml version="1.0" encoding="UTF-8"?><svg id="Layer_1" xmlns="http://www.w3.org/2000/svg" viewBox="0 0 113.39 120.18"><defs><style>.cls-1{fill:#00b1dd;}</style></defs><path class="cls-1" d="M60.4,70.18c-1.19,4.15-1.78,8.43-1.78,12.72v37.28h16.54v-37.28c0-2.12.32-4.21.94-6.2.86-2.71,3.13-4.74,5.94-5.29,1.28-.25,2.62-.38,3.97-.38s2.69.13,3.97.38c2.8.55,5.08,2.58,5.94,5.29.62,2,.94,4.08.94,6.2s-.32,4.2-.94,6.2c-.86,2.71-3.14,4.74-5.94,5.29-1.3.25-2.63.38-3.97.38s-2.67-.13-3.97-.38c-.54-.11-1.07-.27-1.56-.48l5.61,15.4c5.19,0,10.31-.88,15.23-2.6,5.01-1.9,8.77-5.94,10.31-11.09,1.18-4.11,1.77-8.4,1.77-12.73s-.6-8.61-1.77-12.72c-1.54-5.15-5.3-9.19-10.31-11.08-4.94-1.72-10.09-2.6-15.3-2.6s-10.36.87-15.29,2.6c-5.03,1.9-8.79,5.95-10.31,11.08M38.24,26.31h16.54c0-4.29-.6-8.53-1.77-12.62-1.54-5.14-5.3-9.18-10.31-11.09-4.94-1.72-10.09-2.6-15.31-2.6s-10.36.87-15.29,2.6C7.07,4.5,3.31,8.55,1.79,13.68.6,17.83,0,22.11,0,26.4s.6,8.58,1.78,12.73c1.53,5.14,5.29,9.18,10.31,11.09,4.94,1.72,10.08,2.6,15.29,2.6s10.36-.87,15.3-2.6c5.01-1.9,8.77-5.94,10.31-11.09.2-.7.39-1.42.56-2.14l-15.59-7.27c-.16.98-.38,1.94-.68,2.89-.86,2.71-3.14,4.74-5.94,5.29-1.3.25-2.64.38-3.97.38s-2.67-.13-3.97-.38c-2.8-.55-5.08-2.58-5.94-5.29-.63-1.99-.94-4.08-.94-6.2s.32-4.21.94-6.2c.86-2.71,3.13-4.74,5.94-5.29,1.29-.25,2.62-.38,3.97-.38s2.68.13,3.97.38c2.8.55,5.07,2.58,5.94,5.29.61,1.96.93,4.01.94,6.1M38.24,82.9c0,2.12-.32,4.2-.94,6.2-.86,2.71-3.14,4.74-5.94,5.29-1.3.25-2.64.38-3.97.38s-2.67-.13-3.97-.38c-2.8-.55-5.08-2.58-5.94-5.29-.63-1.99-.94-4.08-.94-6.2s.32-4.21.94-6.2c.86-2.71,3.13-4.74,5.94-5.29,1.29-.25,2.62-.38,3.97-.38s2.68.13,3.97.38c2.8.55,5.07,2.58,5.94,5.29.62,2,.94,4.08.94,6.2M53,95.63c1.18-4.11,1.77-8.4,1.77-12.73s-.6-8.6-1.77-12.72c-1.54-5.15-5.3-9.19-10.31-11.09-4.94-1.72-10.09-2.6-15.31-2.6s-10.36.87-15.29,2.6c-5.03,1.91-8.79,5.95-10.31,11.09-1.18,4.15-1.79,8.43-1.79,12.72s.6,8.58,1.78,12.73c1.53,5.14,5.29,9.18,10.31,11.09,4.93,1.72,10.08,2.6,15.29,2.6s10.36-.87,15.3-2.6c5.01-1.9,8.77-5.94,10.31-11.09M96.85,26.41c0,2.12-.32,4.2-.94,6.2-.86,2.71-3.14,4.74-5.94,5.29-1.3.25-2.63.38-3.97.38s-2.67-.13-3.97-.38c-2.8-.55-5.08-2.58-5.94-5.29-.63-1.99-.94-4.08-.94-6.2s.32-4.21.94-6.2c.86-2.71,3.13-4.74,5.94-5.29,1.28-.25,2.62-.38,3.97-.38s2.69.13,3.97.38c2.8.55,5.08,2.58,5.94,5.29.62,2,.94,4.08.94,6.2M111.61,39.13c1.18-4.11,1.77-8.4,1.77-12.73s-.6-8.6-1.77-12.72c-1.54-5.14-5.3-9.19-10.31-11.09-4.94-1.72-10.09-2.6-15.3-2.6s-10.36.87-15.29,2.6c-5.03,1.91-8.79,5.95-10.31,11.09-1.18,4.15-1.78,8.43-1.78,12.72s.6,8.58,1.78,12.73c1.53,5.14,5.29,9.18,10.31,11.09,4.93,1.72,10.08,2.6,15.29,2.6s10.36-.87,15.3-2.6c5.01-1.9,8.77-5.95,10.31-11.09"/></svg>