<?xml version="1.0" encoding="UTF-8"?>
<svg id="Layer_1" xmlns="http://www.w3.org/2000/svg" version="1.1" viewBox="0 0 209.6197325 59.5275591">
  <!-- Generator: Adobe Illustrator 29.3.1, SVG Export Plug-In . SVG Version: 2.1.0 Build 151)  -->
  <defs>
    <style>
      .st0 {
        fill: #1a7ab4;
      }

      .st1 {
        fill: #341d4c;
      }
    </style>
  </defs>
  <g>
    <path class="st1" d="M24.342877,8.3585941h4.9916992v22.6552734h-4.9916992V8.3585941Z"/>
    <path class="st1" d="M43.9263731,13.8937504c-.4052734-.5117188-.9550781-.890625-1.6479492-1.1357422-.6933594-.2451172-1.3496094-.3681641-1.9677734-.3681641-.3632812,0-.7363281.0429688-1.1201172.1279297-.3842773.0849609-.7470703.2197266-1.0878906.3994141-.3417969.1816406-.6191406.421875-.8320312.7207031-.2138672.2988281-.3203125.6621094-.3203125,1.0878906,0,.6835938.2563477,1.2050781.7680664,1.5683594.512207.3632812,1.1572266.671875,1.9360352.9277344s1.6162109.5117188,2.512207.7675781,1.7329102.6191406,2.5117188,1.0878906c.7788086.4707031,1.4243164,1.0996094,1.9360352,1.8886719.512207.7890625.7680664,1.8457031.7680664,3.1679688,0,1.2587891-.2348633,2.3574219-.7041016,3.2958984s-1.1040039,1.7177734-1.9038086,2.3359375c-.800293.6191406-1.7280273,1.0771484-2.7841797,1.3759766-1.0556641.2988281-2.1708984.4482422-3.34375.4482422-1.472168,0-2.8374023-.2236328-4.0961914-.6728516-1.2587891-.4472656-2.4321289-1.171875-3.5200195-2.1757812l3.5522461-3.9033203c.5117188.6826172,1.1567383,1.2109375,1.9360352,1.5839844.7783203.3740234,1.5839844.5595703,2.4160156.5595703.4047852,0,.815918-.0478516,1.2319336-.1435547.4160156-.0966797.7890625-.2402344,1.1196289-.4326172.3305664-.1914062.597168-.4365234.800293-.7363281.2026367-.2978516.3037109-.6503906.3037109-1.0546875,0-.6835938-.2612305-1.2216797-.7836914-1.6171875-.5229492-.3945312-1.1791992-.7304688-1.9682617-1.0078125-.7895508-.2763672-1.6425781-.5546875-2.5600586-.8320312-.9174805-.2763672-1.7709961-.6503906-2.5595703-1.1191406-.7895508-.46875-1.4458008-1.0878906-1.9682617-1.8564453-.5229492-.7685547-.7836914-1.7802734-.7836914-3.0400391,0-1.2158203.2397461-2.2822266.7197266-3.1992188.4799805-.9179688,1.1201172-1.6855469,1.9199219-2.3046875.800293-.6191406,1.7226562-1.0820312,2.7680664-1.3925781,1.0449219-.3085938,2.1225586-.4628906,3.2319336-.4628906,1.2802734,0,2.5170898.1816406,3.7119141.5429688,1.1948242.3632812,2.2719727.9716797,3.2324219,1.8242188l-3.4243164,3.7441406Z"/>
    <path class="st1" d="M49.8780333,8.3585941h4.9916992v22.6552734h-4.9916992V8.3585941Z"/>
    <path class="st1" d="M57.0455137,19.6857426c0-1.8134766.3041992-3.4560547.9121094-4.9277344s1.4560547-2.7255859,2.5439453-3.7607422c1.0878906-1.0332031,2.378418-1.828125,3.8720703-2.3828125,1.4931641-.5546875,3.125-.8320312,4.8959961-.8320312,1.7705078,0,3.4023438.2773438,4.8959961.8320312,1.4931641.5546875,2.7841797,1.3496094,3.8720703,2.3828125,1.0878906,1.0351562,1.9360352,2.2890625,2.5439453,3.7607422s.9121094,3.1142578.9121094,4.9277344-.3041992,3.4560547-.9121094,4.9287109c-.6079102,1.4707031-1.4560547,2.7246094-2.5439453,3.7597656s-2.3789062,1.8291016-3.8720703,2.3837891c-1.4936523.5537109-3.1254883.8320312-4.8959961.8320312-1.7709961,0-3.402832-.2783203-4.8959961-.8320312-1.4936523-.5546875-2.7841797-1.3486328-3.8720703-2.3837891s-1.9360352-2.2890625-2.5439453-3.7597656c-.6079102-1.4726562-.9121094-3.1152344-.9121094-4.9287109ZM62.2295958,19.6857426c0,1.0673828.1650391,2.0429688.4960938,2.9287109.3305664.8847656.8051758,1.6523438,1.4238281,2.3027344.6186523.6523438,1.3598633,1.1582031,2.2241211,1.5205078.8637695.3632812,1.8291016.5439453,2.8959961.5439453,1.0664062,0,2.0322266-.1806641,2.8959961-.5439453.8637695-.3623047,1.6049805-.8681641,2.2241211-1.5205078.6181641-.6503906,1.0927734-1.4179688,1.4238281-2.3027344.3305664-.8857422.4960938-1.8613281.4960938-2.9287109,0-1.0449219-.1655273-2.0166016-.4960938-2.9121094-.3310547-.8955078-.8056641-1.6689453-1.4238281-2.3193359-.6191406-.6503906-1.3603516-1.1572266-2.2241211-1.5205078-.8637695-.3623047-1.8295898-.5439453-2.8959961-.5439453-1.0668945,0-2.0322266.1816406-2.8959961.5439453-.8642578.3632812-1.6054688.8701172-2.2241211,1.5205078s-1.0932617,1.4238281-1.4238281,2.3193359c-.3310547.8955078-.4960938,1.8671875-.4960938,2.9121094Z"/>
    <path class="st1" d="M83.733502,8.3585941h6.7836914l9.6323242,15.7431641h.0639648v-15.7431641h4.9916992v22.6552734h-6.527832l-9.8881836-16.1279297h-.0639648v16.1279297h-4.9916992V8.3585941Z"/>
    <path class="st1" d="M24.342877,34.3585941h4.9916992v22.6552734h-4.9916992v-22.6552734Z"/>
    <path class="st1" d="M43.9263731,39.8937504c-.4052734-.5117188-.9550781-.890625-1.6479492-1.1357422-.6933594-.2451172-1.3496094-.3681641-1.9677734-.3681641-.3632812,0-.7363281.0429688-1.1201172.1279297-.3842773.0849609-.7470703.2197266-1.0878906.3994141-.3417969.1816406-.6191406.421875-.8320312.7207031-.2138672.2988281-.3203125.6621094-.3203125,1.0878906,0,.6835938.2563477,1.2050781.7680664,1.5683594.512207.3632812,1.1572266.671875,1.9360352.9277344s1.6162109.5117188,2.512207.7675781,1.7329102.6191406,2.5117188,1.0878906c.7788086.4707031,1.4243164,1.0996094,1.9360352,1.8886719.512207.7890625.7680664,1.8457031.7680664,3.1679688,0,1.2587891-.2348633,2.3574219-.7041016,3.2958984s-1.1040039,1.7177734-1.9038086,2.3359375c-.800293.6191406-1.7280273,1.0771484-2.7841797,1.3759766-1.0556641.2988281-2.1708984.4482422-3.34375.4482422-1.472168,0-2.8374023-.2236328-4.0961914-.6728516-1.2587891-.4472656-2.4321289-1.171875-3.5200195-2.1757812l3.5522461-3.9033203c.5117188.6826172,1.1567383,1.2109375,1.9360352,1.5839844.7783203.3740234,1.5839844.5595703,2.4160156.5595703.4047852,0,.815918-.0478516,1.2319336-.1435547.4160156-.0966797.7890625-.2402344,1.1196289-.4326172.3305664-.1914062.597168-.4365234.800293-.7363281.2026367-.2978516.3037109-.6503906.3037109-1.0546875,0-.6835938-.2612305-1.2216797-.7836914-1.6171875-.5229492-.3945312-1.1791992-.7304688-1.9682617-1.0078125-.7895508-.2763672-1.6425781-.5546875-2.5600586-.8320312-.9174805-.2763672-1.7709961-.6503906-2.5595703-1.1191406-.7895508-.46875-1.4458008-1.0878906-1.9682617-1.8564453-.5229492-.7685547-.7836914-1.7802734-.7836914-3.0400391,0-1.2158203.2397461-2.2822266.7197266-3.1992188.4799805-.9179688,1.1201172-1.6855469,1.9199219-2.3046875.800293-.6191406,1.7226562-1.0820312,2.7680664-1.3925781,1.0449219-.3085938,2.1225586-.4628906,3.2319336-.4628906,1.2802734,0,2.5170898.1816406,3.7119141.5429688,1.1948242.3632812,2.2719727.9716797,3.2324219,1.8242188l-3.4243164,3.7441406Z"/>
    <path class="st0" d="M53.20567,34.3585941h4.9916992v18.046875h9.2480469v4.6083984h-14.2397461v-22.6552734Z"/>
    <path class="st0" d="M70.1016661,34.3585941h4.9916992v22.6552734h-4.9916992v-22.6552734Z"/>
    <path class="st0" d="M79.6050841,34.3585941h8.4477539c.980957,0,1.9682617.0683594,2.9599609.2070312.9921875.1386719,1.8828125.4160156,2.671875.8320312s1.4291992.9980469,1.9204102,1.7441406c.4902344.7470703.7358398,1.7392578.7358398,2.9765625,0,1.2792969-.3574219,2.3408203-1.0722656,3.1835938s-1.6586914,1.4453125-2.831543,1.8085938v.0634766c.7460938.1064453,1.4238281.3154297,2.0317383.6240234s1.1303711.703125,1.5678711,1.1835938c.4370117.4804688.7729492,1.0400391,1.0083008,1.6796875.234375.640625.3520508,1.3242188.3520508,2.0488281,0,1.1953125-.2563477,2.1914062-.7680664,2.9921875-.512207.7988281-1.1738281,1.4453125-1.9838867,1.9355469-.8110352.4912109-1.7231445.8427734-2.7363281,1.0566406-1.0131836.2128906-2.0214844.3193359-3.0239258.3193359h-9.2797852v-22.6552734ZM84.5967833,43.4132816h3.6162109c.3837891,0,.762207-.0419922,1.1357422-.1269531.3730469-.0859375.7089844-.2246094,1.0083008-.4160156.2983398-.1923828.5385742-.4482422.7197266-.7685547.1811523-.3193359.2719727-.7041016.2719727-1.1513672,0-.4697266-.1015625-.859375-.3037109-1.1679688-.203125-.3095703-.4643555-.5488281-.7841797-.7207031-.3198242-.1699219-.6831055-.2929688-1.0878906-.3671875-.4057617-.0751953-.800293-.1132812-1.184082-.1132812h-3.3920898v4.8320312ZM84.5967833,52.7902347h4.4799805c.3842773,0,.7729492-.0429688,1.1679688-.1289062.3945312-.0839844.7519531-.234375,1.0722656-.4472656.3198242-.2128906.5810547-.4902344.7836914-.8320312s.3041992-.7578125.3041992-1.2480469c0-.5332031-.1333008-.9648438-.3999023-1.2958984-.2670898-.3310547-.6030273-.5810547-1.0083008-.7529297-.4052734-.1699219-.8427734-.2871094-1.3120117-.3515625s-.9067383-.0957031-1.3120117-.0957031h-3.7758789v5.1523438Z"/>
    <path class="st0" d="M100.3091856,34.3585941h8.7675781c1.1523438,0,2.2451172.1113281,3.2802734.3359375,1.034668.2226562,1.940918.5966797,2.7197266,1.1191406.7788086.5234375,1.3974609,1.2265625,1.8564453,2.1123047.4584961.8857422.6879883,1.9892578.6879883,3.3115234,0,1.6005859-.4160156,2.9609375-1.2480469,4.0800781-.8320312,1.1201172-2.0483398,1.8300781-3.6479492,2.1289062l5.7597656,9.5673828h-5.9838867l-4.7363281-9.0556641h-2.4638672v9.0556641h-4.9916992v-22.6552734ZM105.3008848,43.7335941h2.9443359c.4477539,0,.9223633-.015625,1.4238281-.0478516.5009766-.0322266.9545898-.1279297,1.3598633-.2880859s.7412109-.4101562,1.0083008-.7519531c.2661133-.3408203.3999023-.8203125.3999023-1.4394531,0-.5761719-.1176758-1.0351562-.3520508-1.3769531-.2348633-.3398438-.5336914-.6015625-.8959961-.7832031-.3632812-.1816406-.7792969-.3046875-1.2480469-.3681641-.4697266-.0634766-.9282227-.0966797-1.3759766-.0966797h-3.2641602v5.1523438Z"/>
    <path class="st0" d="M128.4683653,34.3585941h4.128418l9.855957,22.6552734h-5.6323242l-1.9516602-4.7998047h-8.800293l-1.8876953,4.7998047h-5.5043945l9.7919922-22.6552734ZM130.3887755,40.950391l-2.7519531,7.0390625h5.5356445l-2.7836914-7.0390625Z"/>
    <path class="st0" d="M144.6929747,34.3585941h8.7675781c1.1523438,0,2.2451172.1113281,3.2802734.3359375,1.034668.2226562,1.940918.5966797,2.7197266,1.1191406.7788086.5234375,1.3974609,1.2265625,1.8564453,2.1123047.4584961.8857422.6879883,1.9892578.6879883,3.3115234,0,1.6005859-.4160156,2.9609375-1.2480469,4.0800781-.8320312,1.1201172-2.0483398,1.8300781-3.6479492,2.1289062l5.7597656,9.5673828h-5.9838867l-4.7363281-9.0556641h-2.4638672v9.0556641h-4.9916992v-22.6552734ZM149.6846739,43.7335941h2.9443359c.4477539,0,.9223633-.015625,1.4238281-.0478516.5009766-.0322266.9545898-.1279297,1.3598633-.2880859s.7412109-.4101562,1.0083008-.7519531c.2661133-.3408203.3999023-.8203125.3999023-1.4394531,0-.5761719-.1176758-1.0351562-.3520508-1.3769531-.2348633-.3398438-.5336914-.6015625-.8959961-.7832031-.3632812-.1816406-.7792969-.3046875-1.2480469-.3681641-.4697266-.0634766-.9282227-.0966797-1.3759766-.0966797h-3.2641602v5.1523438Z"/>
    <path class="st0" d="M165.3326231,34.3585941h4.9916992v22.6552734h-4.9916992v-22.6552734Z"/>
    <path class="st0" d="M175.0279356,34.3585941h15.3920898v4.6074219h-10.4003906v4.2236328h9.8242188v4.6083984h-9.8242188v4.6074219h10.9760742v4.6083984h-15.9677734v-22.6552734Z"/>
    <path class="st0" d="M206.1636778,39.8937504c-.4052734-.5117188-.9550781-.890625-1.6479492-1.1357422-.6933594-.2451172-1.3496094-.3681641-1.9677734-.3681641-.3632812,0-.7363281.0429688-1.1201172.1279297-.3842773.0849609-.7470703.2197266-1.0878906.3994141-.3417969.1816406-.6191406.421875-.8320312.7207031-.2138672.2988281-.3203125.6621094-.3203125,1.0878906,0,.6835938.2563477,1.2050781.7680664,1.5683594.512207.3632812,1.1572266.671875,1.9360352.9277344s1.6162109.5117188,2.512207.7675781,1.7329102.6191406,2.5117188,1.0878906c.7788086.4707031,1.4243164,1.0996094,1.9360352,1.8886719.512207.7890625.7680664,1.8457031.7680664,3.1679688,0,1.2587891-.2348633,2.3574219-.7041016,3.2958984s-1.1040039,1.7177734-1.9038086,2.3359375c-.800293.6191406-1.7280273,1.0771484-2.7841797,1.3759766-1.0556641.2988281-2.1708984.4482422-3.34375.4482422-1.472168,0-2.8374023-.2236328-4.0961914-.6728516-1.2587891-.4472656-2.4321289-1.171875-3.5200195-2.1757812l3.5522461-3.9033203c.5117188.6826172,1.1567383,1.2109375,1.9360352,1.5839844.7783203.3740234,1.5839844.5595703,2.4160156.5595703.4047852,0,.815918-.0478516,1.2319336-.1435547.4160156-.0966797.7890625-.2402344,1.1196289-.4326172.3305664-.1914062.597168-.4365234.800293-.7363281.2026367-.2978516.3037109-.6503906.3037109-1.0546875,0-.6835938-.2612305-1.2216797-.7836914-1.6171875-.5229492-.3945312-1.1791992-.7304688-1.9682617-1.0078125-.7895508-.2763672-1.6425781-.5546875-2.5600586-.8320312-.9174805-.2763672-1.7709961-.6503906-2.5595703-1.1191406-.7895508-.46875-1.4458008-1.0878906-1.9682617-1.8564453-.5229492-.7685547-.7836914-1.7802734-.7836914-3.0400391,0-1.2158203.2397461-2.2822266.7197266-3.1992188.4799805-.9179688,1.1201172-1.6855469,1.9199219-2.3046875.800293-.6191406,1.7226562-1.0820312,2.7680664-1.3925781,1.0449219-.3085938,2.1225586-.4628906,3.2319336-.4628906,1.2802734,0,2.5170898.1816406,3.7119141.5429688,1.1948242.3632812,2.2719727.9716797,3.2324219,1.8242188l-3.4243164,3.7441406Z"/>
  </g>
  <g>
    <polygon class="st0" points="21.0512561 1.8263629 11.747301 24.8530963 14.2575549 31.0665362 14.2700061 31.0665362 26.0827502 1.8263629 21.0512561 1.8263629"/>
    <polygon class="st1" points="11.747301 24.8530963 5.0317249 8.2304767 -.0000134 8.2304767 9.2260608 31.0665362 9.236803 31.0665362 14.2575549 31.0665362 11.747301 24.8530963"/>
  </g>
</svg>