<?xml version="1.0" encoding="UTF-8"?>
<svg id="Layer_1" data-name="Layer 1" xmlns="http://www.w3.org/2000/svg" viewBox="0 0 593.99 526.45">
  <path d="M387.6,80.23c-9.61,2.01-19.27,18.49-22.51,27-.86,2.24-.94,4.76.57,6.73,10.29-5.37,18.59-14.43,22.64-25.19,1.06-2.79,1.58-6.52-.7-8.54ZM387.6,80.23c-9.61,2.01-19.27,18.49-22.51,27-.86,2.24-.94,4.76.57,6.73,10.29-5.37,18.59-14.43,22.64-25.19,1.06-2.79,1.58-6.52-.7-8.54ZM387.6,80.23c-9.61,2.01-19.27,18.49-22.51,27-.86,2.24-.94,4.76.57,6.73,10.29-5.37,18.59-14.43,22.64-25.19,1.06-2.79,1.58-6.52-.7-8.54ZM387.6,80.23c-9.61,2.01-19.27,18.49-22.51,27-.86,2.24-.94,4.76.57,6.73,10.29-5.37,18.59-14.43,22.64-25.19,1.06-2.79,1.58-6.52-.7-8.54ZM133.3,100.73c-1.24-2.48-3.5-3.01-5.88-2.63-3.06.48-5.72,2.39-7.4,5-5,7.79-8.59,16.35-9.88,25.62-.81,5.74.43,11.5,3.95,15.85,1.74,2.16,4,2.4,6.44.85,10.79-6.9,13.8-20.01,14.94-31.76.44-4.54-.11-8.83-2.17-12.93ZM387.6,80.23c-9.61,2.01-19.27,18.49-22.51,27-.86,2.24-.94,4.76.57,6.73,10.29-5.37,18.59-14.43,22.64-25.19,1.06-2.79,1.58-6.52-.7-8.54ZM133.3,100.73c-1.24-2.48-3.5-3.01-5.88-2.63-3.06.48-5.72,2.39-7.4,5-5,7.79-8.59,16.35-9.88,25.62-.81,5.74.43,11.5,3.95,15.85,1.74,2.16,4,2.4,6.44.85,10.79-6.9,13.8-20.01,14.94-31.76.44-4.54-.11-8.83-2.17-12.93ZM387.6,80.23c-9.61,2.01-19.27,18.49-22.51,27-.86,2.24-.94,4.76.57,6.73,10.29-5.37,18.59-14.43,22.64-25.19,1.06-2.79,1.58-6.52-.7-8.54ZM133.3,100.73c-1.24-2.48-3.5-3.01-5.88-2.63-3.06.48-5.72,2.39-7.4,5-5,7.79-8.59,16.35-9.88,25.62-.81,5.74.43,11.5,3.95,15.85,1.74,2.16,4,2.4,6.44.85,10.79-6.9,13.8-20.01,14.94-31.76.44-4.54-.11-8.83-2.17-12.93ZM387.6,80.23c-9.61,2.01-19.27,18.49-22.51,27-.86,2.24-.94,4.76.57,6.73,10.29-5.37,18.59-14.43,22.64-25.19,1.06-2.79,1.58-6.52-.7-8.54ZM133.3,100.73c-1.24-2.48-3.5-3.01-5.88-2.63-3.06.48-5.72,2.39-7.4,5-5,7.79-8.59,16.35-9.88,25.62-.81,5.74.43,11.5,3.95,15.85,1.74,2.16,4,2.4,6.44.85,10.79-6.9,13.8-20.01,14.94-31.76.44-4.54-.11-8.83-2.17-12.93ZM387.6,80.23c-9.61,2.01-19.27,18.49-22.51,27-.86,2.24-.94,4.76.57,6.73,10.29-5.37,18.59-14.43,22.64-25.19,1.06-2.79,1.58-6.52-.7-8.54ZM133.3,100.73c-1.24-2.48-3.5-3.01-5.88-2.63-3.06.48-5.72,2.39-7.4,5-5,7.79-8.59,16.35-9.88,25.62-.81,5.74.43,11.5,3.95,15.85,1.74,2.16,4,2.4,6.44.85,10.79-6.9,13.8-20.01,14.94-31.76.44-4.54-.11-8.83-2.17-12.93ZM336.83,292.16c-2.12-3.98-7.94-3.92-11.56-2.78-3.19,1-4.99,2.56-6.55,5.44-4.38,8.1-7.35,17.08-8.27,26.39-.27,2.67.11,6.17,2.7,7.75,1.49.38,4-1.1,5.16-2.12,7.38-6.47,13.51-14.14,17.38-23.26,1.43-3.38,2.89-8.11,1.14-11.42ZM387.6,80.23c-9.61,2.01-19.27,18.49-22.51,27-.86,2.24-.94,4.76.57,6.73,10.29-5.37,18.59-14.43,22.64-25.19,1.06-2.79,1.58-6.52-.7-8.54ZM336.83,292.16c-2.12-3.98-7.94-3.92-11.56-2.78-3.19,1-4.99,2.56-6.55,5.44-4.38,8.1-7.35,17.08-8.27,26.39-.27,2.67.11,6.17,2.7,7.75,1.49.38,4-1.1,5.16-2.12,7.38-6.47,13.51-14.14,17.38-23.26,1.43-3.38,2.89-8.11,1.14-11.42ZM133.3,100.73c-1.24-2.48-3.5-3.01-5.88-2.63-3.06.48-5.72,2.39-7.4,5-5,7.79-8.59,16.35-9.88,25.62-.81,5.74.43,11.5,3.95,15.85,1.74,2.16,4,2.4,6.44.85,10.79-6.9,13.8-20.01,14.94-31.76.44-4.54-.11-8.83-2.17-12.93ZM387.6,80.23c-9.61,2.01-19.27,18.49-22.51,27-.86,2.24-.94,4.76.57,6.73,10.29-5.37,18.59-14.43,22.64-25.19,1.06-2.79,1.58-6.52-.7-8.54ZM512.5,165.24c-5.99-38.13-36.35-65.7-64.23-89.55C389.61,27.86,312.19,3.62,237.17,0c-32.58.33-65.21,5.3-95.78,16.7-14.98,5.58-18.41,10.92-30.55,17.16-6.03,3.09-11.18,6.75-16.52,10.89-13.42,10.44-10.24,10.55-20.31,20.78-5.87,3.87-11.59,16.71-15.43,22.34-11.96,16.42-18,40.05-23.22,59.49-3.57,11.88-10.36,39.41-13.73,51.6-6.2,20.11-14.06,40.95,7.08,54.98,20.07,14,4.28,24.06-2.83,39.12-5.86,15.19-3.42,21.85-13.52,36.44-6.67,7.95-9.62,20.36-.41,27.38,18.56,16.43-31.19,74.15-3.2,127.73,9.19,18.44,35.52,24.83,49.72,29.72,38.72,10.44,93.87,2.67,130.65-12.48,22.49-10.53,28.21-29.89,41.42-46.12,6.77-8.64,17.25-13.16,27.69-15.71,13.92-3.32,32.97-7.16,46.87-9.74,94.56-15.75,161.85-84.31,191.05-173.25,9.31-29.76,22.87-59.85,16.35-91.79ZM342.51,100.45c7.33-14.71,22.19-33.87,38.12-39.39,8.17-2.85,16.99-2,24.16,2.6,7.61,4.9,10.75,13.67,7.96,22.31-4.17,12.97-19.4,27.36-29.92,35.83l-9.18,7.39c-11.15,8.96-10.58,27.69-6.88,40.02,5.61,18.66,24.25,23.5,24.05,38.3-.12,8.69-11.08,9.51-17.36,8.6-3.31-.49-4.91-2.72-7.36-4.42-14.49-10.12-24.89-24.13-29.26-41.44-5.96-23.58-5.32-47.7,5.67-69.8ZM179.49,212.92c3.89-13.37,7.1-26.48,9.31-40.29,2.13-13.4,2.42-26.41,1.08-39.92l-3.72-37.14c-.73-7.24-.79-14.2.07-21.32.82-6.69,3.39-12.74,8.05-17.59,12.98-13.51,31.05-21.68,49.93-18.39,4.64.8,8.89,2.48,12.32,5.31,3.04,2.52,3.39,6.18,1.28,9.32-2.32,3.47-5.72,5.54-9.59,7.23-3.22,1.4-6.24,3.08-8.99,5.08-6.73,4.89-11.2,12.23-12.89,20.37-1.5,7.19-1.91,14.5-1.55,22.03.39,8.28.76,16.3,2.45,24.3,1.51,7.21,7.28,3.31,14.56,7.78,3.65,2.24,4.18,6.22,1.81,9.62-7.44,10.65-15.98,8.77-16.2,18.25-.12,5.75-.33,11.41-1.49,17.37-1.9,9.79-4.04,18.9-6.8,28.21-4.17,14.1-15.21,36.02-32.42,35.11-5.17-.27-9.19-3.53-10.48-8.6-2-7.88.94-18.72,3.27-26.73ZM174.26,273.52c4.56,3.81,5.39,10.13,1.75,15.39-3.83,5.52-11.47,7.54-17.66,5.04-5.5-2.21-7.68-8.49-5.55-13.99,1.79-4.61,5.89-8.21,10.51-9.81,4.14-1.43,8.47-.13,10.95,3.37ZM62.17,123.21l7.65-18.56c7.5-18.18,24.6-40.91,41.14-52.64,5.92-4.19,12.81-5.85,20.03-4.67,8.1,1.32,20.47,5.77,25,12.6,9.33,14.12,11.04,35.2,12.59,52.03.88,9.48-.05,18.45-.29,27.95-.36,14.54-1.26,28.47-4.36,42.67-.89,4.06-1.48,7.98-1.96,12.07-1.06,9.22-3.2,17.73-6.63,26.39-1.85,4.62-4.73,9.83-9.79,11.55-5.14,1.73-10.87-1.52-14.33-5.35-3.91-4.34-5.93-9.82-6.64-15.66-1.65-13.59.37-20.16-5.2-33.63-1.91-4.63-5.94-7.09-10.74-7.23-10.31-.33-12.45,4.64-15.27,12.16l-8.84,23.67c-1.61,4.31-3.59,8.31-5.86,12.18-3.38,5.78-9.03,8.5-15.59,8.32-8.15-.24-14.34-5.29-15.7-13.34-5.57-32.91,2.72-61.25,14.79-90.51ZM104.11,475.9c-6.3,8.17-19.88,10.43-29.6,11.49-11.21,1.21-22.35-.64-32.22-6.08-13.89-7.66-20.41-22.27-20.94-37.72-.27-7.93.16-15.58,1.32-23.45,1.49-10.13,2.6-19.89,4.93-29.86l9.49-40.78c3.11-14.42,8.48-28.04,17.15-39.9,4.41-6.03,10.28-9.8,17.56-10.91,5.87-.89,12.55-1.17,15.39,5.68,3.62,8.72,3.83,18.07,1.3,27.18-2.09,7.57-4.65,14.5-7.56,21.82-4.8,12-9.43,23.66-13.52,35.91-4.45,13.34-5.64,24.73-4.41,38.73.36,4.24,1.85,8.12,4.56,11.19,3.69,4.18,8.8,5.62,14.21,4.48,4.46-.95,8.82-1.79,13.39-2.24,7.53-.75,14.31,2.44,15.43,10.65,1.14,8.41-1.29,17.08-6.48,23.81ZM156.12,466.87c-9,.42-16.56-3.97-20.94-11.8-4.53-8.1-6.86-17-8.26-26.28-.71-4.78-1.97-15.33-5.45-20.18-.91-1.27-2.79-1.37-3.84-.22-3.65,3.97-5.22,9.22-11.71,10.68-5.78,1.3-10.7-1.9-11.75-7.76-.85-4.76-.36-9.62.92-14.42,5.82-21.75,22.62-48.9,36.67-66.41,6.74-8.4,13.98-12.92,24.81-10.95,4.92.9,7.4,5.24,6.62,10.13-.91,5.6-2.96,10.78-5.17,16.08-3.39,8.1-6.54,15.84-8.76,24.37-3.51,13.52-3.8,27.38-.45,40.93.91,3.7,2.54,8.6,5.16,12.39,2.33,3.36,7.32,3.15,9.35-.4.78-1.36,1.44-2.78,2.01-4.3l5.53-14.77c1.63-4.33,3.51-8.43,6.39-11.98,3.12-3.84,7.92-6.1,12.82-4.98,19.33,4.4,7.71,77.87-33.95,79.87ZM277.07,332.76c-.26,18.09-2.95,35.67-8.89,52.7-2.21,6.36-5.38,11.88-9.82,16.72-8.59,9.33-21.76,8.89-31.43,1.12-3.52-2.83-6.5-6.17-9.08-9.92l-6.67-9.71c-6.3-9.18-12.78-17.94-16.04-28.75-2.57-8.52-4.57-16.96-5.33-25.92-.73-8.45.79-16.77,3.28-24.92,1.58-5.19,5.61-7.61,10.42-8.6,1.76-.37,3.99-.74,5.77.16,4.3,2.15,4.3,10.43,4.2,14.69-.13,5.28-.33,10.26-.11,15.5.47,10.97,2.91,21.53,7.96,31.23,2.87,5.51,9.82,15.25,16.53,15.21,1.12,0,2.74-1.98,3.33-3.01,1.88-3.37,2.91-6.95,3.34-10.85,1.61-14.55-.03-27.14,2.08-41.59,1.28-8.72,4.71-20.51,13.96-23.4,4.57-1.43,8.9.13,11.49,4.27,5.71,9.08,5.18,24.12,5.01,35.07ZM268.94,225.82c-8.32-26.13-6.89-71.33-3.11-98.67.56-4.13.79-8.25.3-12.23-.38-3.1-2.54-4.89-5.39-5.4-5.93-1.07-14.81-2.32-14.93-10.26-.1-7.58,3.97-14.79,12.5-14.59l8.82.2c3.21.07,6.1-1.99,7.06-5.06.9-2.9,1.36-5.9,1.61-9.02,1.01-12.22,4.4-27.04,13.76-35.5,3.62-3.27,7.92-4,12.54-3.27,3.14.49,5.79,1.48,7.5,4.57,5.05,9.18,3.88,22.14,1.89,32.29-.64,3.23-1.77,6.12-3.48,8.93-1.84,3.04-7.94,13.64-5.57,16.51,1.69,2.01,17.03.18,19.66,5.01,2.57,4.67-4.69,12.35-8.63,15.35-6.47,4.91-16.78,7.57-18.32,10.31-1.65,2.95-1.62,6.29-1.94,9.55l-3.32,33.21c-1.04,10.49-1.2,24.26,4.28,33.38,2.04,3.4,5.94,7.64,10.1,6.88l11.11-2.04c3.91-.72,7.31,1.08,9.46,4.12,4.54,6.45,4.36,14.83-.32,21.23-10.28,14.04-29.09,23.8-44.93,11-5.23-4.21-8.58-9.99-10.65-16.5ZM345.66,392.21c-10.45,10.39-28.23,12.86-39.34,2.28-8.09-7.69-12.36-19.4-14.28-30.39-3.46-19.72-2.96-39.71,1.54-59.23,3.32-14.4,11.62-27.49,25.71-33.03,8.74-3.44,18.3-2.97,26.39,1.55,15.15,8.47,12.95,27.8,5.98,40.85-5.19,9.71-12.59,17.85-22.21,23.22-2.96,1.65-5.29,3.67-6.26,7.08-.43,1.48-.45,2.99-.11,4.4.88,3.73,4.71,5.98,8.45,5.14l4.36-.98c4.58-1.02,9.38-1.05,13.79.32,5.71,1.79,9.54,6.6,9.4,12.88-.2,9.34-7.23,19.75-13.42,25.91ZM466.66,262.85c-2.95,1.95-7.2,1.46-10.54.67-8.93-2.13-16.07-8.4-21.67-9.07-4.54-.53-8.93,1.75-11.99,4.79-2.98,2.96-2.78,7.16-.02,10.32,5.88,6.68,13.92,9.57,20.51,17.9,6.1,7.73,8.08,17.54,4.66,27.12-3.71,10.45-9.82,20.3-18.27,27.77-15.6,13.77-45.05,16.92-58.49-.41-6.56-8.46-7.73-19.79-3.94-29.37,1.59-4.01,5.21-6.31,9.32-6.47,5.13-.21,10.05,1.53,13.99,4.89l8.3,7.11c3.61,3.09,8,5.03,12.72,5.37,4.79.36,8.69-1.92,10.63-6.25,5.05-11.27,1.89-27.53-12.15-30.93l-10.81-2.62c-5.32-1.29-9.82-4.32-13.05-8.54-3.83-4.97-4.14-10.88-1.6-16.58,3.08-6.91,11.1-12.97,17.33-17.19,25-16.92,56.57-8.37,67.11,4.94,3.94,4.98,3.47,12.89-2.04,16.55ZM467.65,142.86c-4.44.55-9.02.37-13.67-.05-6.55-.6-12.11,3.55-12.57,10.42-.34,5.09-.02,10.28.25,15.58.56,10.65.61,20.98-.87,31.5-1.34,9.43-4.88,21.83-16.48,20.67-5.14-.51-9.01-3.98-10.73-9.18-2.06-6.19-3.2-12.58-3.41-19.58l-.88-28.55c-.13-4.3-.87-8.42-2.87-12.07-2.86-5.22-6.14,2.12-13.74,3.15-2.01.28-4.36-.19-5.81-1.35-1.39-1.13-2.31-3.58-2.35-5.73-.13-7.54,5.17-13.23,12.04-15.91,4.45-1.74,9.43-1.67,13.97.26l1.26.54c4.21,1.79,9.1.64,12.06-2.85.13-.15.27-.32.4-.48,10.13-12.4,26.87-17.9,42.08-12.52,5.81,2.05,10.12,6.61,11.29,12.39,1.41,6.92-3,12.91-9.97,13.76ZM388.3,88.77c1.06-2.79,1.58-6.52-.7-8.54-9.61,2.01-19.27,18.49-22.51,27-.86,2.24-.94,4.76.57,6.73,10.29-5.37,18.59-14.43,22.64-25.19ZM336.83,292.16c-2.12-3.98-7.94-3.92-11.56-2.78-3.19,1-4.99,2.56-6.55,5.44-4.38,8.1-7.35,17.08-8.27,26.39-.27,2.67.11,6.17,2.7,7.75,1.49.38,4-1.1,5.16-2.12,7.38-6.47,13.51-14.14,17.38-23.26,1.43-3.38,2.89-8.11,1.14-11.42ZM120.53,145.42c10.79-6.9,13.8-20.01,14.94-31.76.44-4.54-.11-8.83-2.17-12.93-1.24-2.48-3.5-3.01-5.88-2.63-3.06.48-5.72,2.39-7.4,5-5,7.79-8.59,16.35-9.88,25.62-.81,5.74.43,11.5,3.95,15.85,1.74,2.16,4,2.4,6.44.85ZM387.6,80.23c-9.61,2.01-19.27,18.49-22.51,27-.86,2.24-.94,4.76.57,6.73,10.29-5.37,18.59-14.43,22.64-25.19,1.06-2.79,1.58-6.52-.7-8.54ZM133.3,100.73c-1.24-2.48-3.5-3.01-5.88-2.63-3.06.48-5.72,2.39-7.4,5-5,7.79-8.59,16.35-9.88,25.62-.81,5.74.43,11.5,3.95,15.85,1.74,2.16,4,2.4,6.44.85,10.79-6.9,13.8-20.01,14.94-31.76.44-4.54-.11-8.83-2.17-12.93ZM387.6,80.23c-9.61,2.01-19.27,18.49-22.51,27-.86,2.24-.94,4.76.57,6.73,10.29-5.37,18.59-14.43,22.64-25.19,1.06-2.79,1.58-6.52-.7-8.54ZM133.3,100.73c-1.24-2.48-3.5-3.01-5.88-2.63-3.06.48-5.72,2.39-7.4,5-5,7.79-8.59,16.35-9.88,25.62-.81,5.74.43,11.5,3.95,15.85,1.74,2.16,4,2.4,6.44.85,10.79-6.9,13.8-20.01,14.94-31.76.44-4.54-.11-8.83-2.17-12.93ZM387.6,80.23c-9.61,2.01-19.27,18.49-22.51,27-.86,2.24-.94,4.76.57,6.73,10.29-5.37,18.59-14.43,22.64-25.19,1.06-2.79,1.58-6.52-.7-8.54ZM133.3,100.73c-1.24-2.48-3.5-3.01-5.88-2.63-3.06.48-5.72,2.39-7.4,5-5,7.79-8.59,16.35-9.88,25.62-.81,5.74.43,11.5,3.95,15.85,1.74,2.16,4,2.4,6.44.85,10.79-6.9,13.8-20.01,14.94-31.76.44-4.54-.11-8.83-2.17-12.93ZM387.6,80.23c-9.61,2.01-19.27,18.49-22.51,27-.86,2.24-.94,4.76.57,6.73,10.29-5.37,18.59-14.43,22.64-25.19,1.06-2.79,1.58-6.52-.7-8.54ZM133.3,100.73c-1.24-2.48-3.5-3.01-5.88-2.63-3.06.48-5.72,2.39-7.4,5-5,7.79-8.59,16.35-9.88,25.62-.81,5.74.43,11.5,3.95,15.85,1.74,2.16,4,2.4,6.44.85,10.79-6.9,13.8-20.01,14.94-31.76.44-4.54-.11-8.83-2.17-12.93ZM387.6,80.23c-9.61,2.01-19.27,18.49-22.51,27-.86,2.24-.94,4.76.57,6.73,10.29-5.37,18.59-14.43,22.64-25.19,1.06-2.79,1.58-6.52-.7-8.54ZM133.3,100.73c-1.24-2.48-3.5-3.01-5.88-2.63-3.06.48-5.72,2.39-7.4,5-5,7.79-8.59,16.35-9.88,25.62-.81,5.74.43,11.5,3.95,15.85,1.74,2.16,4,2.4,6.44.85,10.79-6.9,13.8-20.01,14.94-31.76.44-4.54-.11-8.83-2.17-12.93ZM387.6,80.23c-9.61,2.01-19.27,18.49-22.51,27-.86,2.24-.94,4.76.57,6.73,10.29-5.37,18.59-14.43,22.64-25.19,1.06-2.79,1.58-6.52-.7-8.54ZM133.3,100.73c-1.24-2.48-3.5-3.01-5.88-2.63-3.06.48-5.72,2.39-7.4,5-5,7.79-8.59,16.35-9.88,25.62-.81,5.74.43,11.5,3.95,15.85,1.74,2.16,4,2.4,6.44.85,10.79-6.9,13.8-20.01,14.94-31.76.44-4.54-.11-8.83-2.17-12.93ZM387.6,80.23c-9.61,2.01-19.27,18.49-22.51,27-.86,2.24-.94,4.76.57,6.73,10.29-5.37,18.59-14.43,22.64-25.19,1.06-2.79,1.58-6.52-.7-8.54ZM387.6,80.23c-9.61,2.01-19.27,18.49-22.51,27-.86,2.24-.94,4.76.57,6.73,10.29-5.37,18.59-14.43,22.64-25.19,1.06-2.79,1.58-6.52-.7-8.54Z"/>
  <path d="M570.37,248.39c-1.3-4.62-5.88-7.49-10.64-6.93-4.43.53-8.59,2.01-12.72,3.85-4.6,2.04-9.62,2.43-14.34.37l-10.18-4.43c-2.19-.95-4.86-1.29-6.92-.15-2.11,1.18-3.3,3.97-3.07,6.31.28,2.92-.29,4.98-1.51,7.89-4.21,10.05-4.14,21.57.38,31.42,4.72,10.27,15.06,17,26.15,17.76,6.61.45,12.67-2.71,16.29-6.85,7.43-8.51,6-18.88.38-27.91-.91-1.45-.02-3.38,1.68-3.6,3.93-.5,7.52-2.01,10.45-4.67,3.71-3.37,5.37-8.36,4.05-13.06ZM535.55,286.12c-11.18,1.02-19.95-17.39-16.68-20.87,1.89-2.01,5-1.67,7.39-.83,10.82,3.84,17.49,20.96,9.29,21.7Z"/>
  <path d="M490.87,353.16c-6.56-2.3-14.82-5.48-18.53-11.76-1.48-2.5-1.48-5.69.45-7.73,6.11-6.44,18.54,3.26,27.95,5.37,2.43.54,4.24-2.22,2.85-4.28-5.83-8.58-15.94-19.9-12.03-28.92.96-2.21,2.64-3.95,4.5-4.61,5.97-2.13,11.22,3.78,14.61,8.51,5.39,7.52,14.89,24.1,16.88,32.81,1.19,5.2-1.19,10.3-5.9,12.7-8.41,4.29-22.22.92-30.78-2.08Z"/>
  <path d="M449.41,437.47c-15.62-9.42-18.2-28.92-25.99-24.38-2.54,1.48-7.07,3.72-9.06.64-2.69-4.19,4.4-9.52,7.41-11.75,4.34-3.23-1.73-5.59-.76-11.34.43-2.54,3.08-4.45,5.1-5.03,2.81-.81,6.05-.52,7.64,1.93l3.13,4.82c1.88,2.88,6.57-3.24,9.21-4.65,2.42-1.28,5.23.83,6.4,2.86,1.29,2.24.62,5.02-1.36,6.96l-4.31,4.22c-1.76,1.73-2.09,4-1,6.29,2.68,5.63,6.81,10.66,12.23,13.95,1.87,1.14,4.7,1.44,6.3-.07,2.42-2.27-.11-7.51,1.15-10.54,1-2.39,4.35-3.06,6.52-2.76,6.21.87,6.47,10.28,6.41,15.37-.07,6.14-3.35,10.85-8.57,13.68-6.55,3.54-13.91,3.76-20.47-.19Z"/>
  <path d="M521.22,206.04c2.52-6.57,11.09-5.65,16.77-3.85l14.08,4.48c5.54,1.76,11.49,1.6,16.81-.39,2.64-.99,3.6-2.84,3.87-5.35.41-3.77,3.35-6.09,7.08-5.45,6.19,1.06,11.63,5.48,13.51,11.62,2.45,8.03-2.17,15.98-10.06,18.65-5.18,1.75-10.44,2.09-16.04,1.62-12.94-1.07-25.47-4.49-37.39-9.68-2.66-1.16-5.29-2.42-7.46-4.33-2.01-1.77-1.9-5.4-1.17-7.31Z"/>
  <g>
    <path d="M471.34,384.53c-3.83-2.86-12.16-8.49-8.81-14.43,1.7-3.02,5.34-4.5,8.89-3.53,5.75,1.56,10.51,7.92,18.79,8.51,5.69.41,4.66-2.79,7.53-7.26,1.45-2.25,4.36-2.97,6.78-1.49,3.54,2.16,6.75,5.98,7.29,10.4.72,5.87-2.54,11.74-7.33,14.89-9.67,6.37-24.87-.92-33.13-7.09Z"/>
    <path d="M457.81,365.88c-1.2,2.85-3.4,4.93-6.03,5.38-2.64.45-6.39-.42-7.69-3.18-2.23-4.73.27-10.83,4.95-12.78,3.02-1.26,6.03.14,7.68,2.04,2.06,2.38,2.37,5.49,1.1,8.54Z"/>
  </g>
  <path d="M303.08,479.82c-6.74,10.96-27.03,3.04-25.45,14.58.77,5.64,1.94,11.11,3.09,16.72.73,3.54.93,7.11.02,10.5-1.03,3.85-4.64,5.66-8.46,4.45-7.03-2.24-12.99-13.44-15.58-20.07-3.9-9.99-6.13-20.36-6.55-31.13-.33-8.29.35-19.39,7.71-24.06,7.17-4.54,16.62-5.75,25.03-7.09,5.79-.92,13.12,1.6,13.4,6.33.24,4.13-6.63,7.16-10.06,8.13l-10.76,3.05c-2.64.75-3.97,3.22-3.68,5.87.29,2.61,1.36,5.2,3.97,6.25,4.64,1.88,15.31-6.86,24.98-1.92,3.18,1.63,4.31,5.17,2.34,8.37Z"/>
  <path d="M381.56,465.96c-3.42-3-6.52-9.07-3.17-12.33,2.97-2.88,10.35.8,13.78,2.44,7.37,3.52,15.88,2.17,21.02-4.24,2.32-2.89,2.85-7.71-.49-10.01-1.54-1.06-4.45-.73-6.22-.37l-11.37,2.35c-4.4.91-8.95.93-13.15-.62-6.13-2.26-9.62-8.01-8.23-14.43,1.32-6.08,5.57-10.97,11.09-13.95,7.59-4.11,18.54-1.62,21.17,4.6.72,1.7-.34,3.55-2.08,3.93-1.64.36-3.28.57-4.97.76-2.02.23-3.9,1.1-5.21,2.47-1.79,1.88-.23,4.99,2.35,4.75l7.22-.68c7.13-.67,13.99,1.15,19.58,5.48,6.43,4.97,9.1,12.78,6.57,20.59-2.84,8.79-10.07,15.18-19.21,16.96-10.23,2-20.87-.84-28.7-7.71Z"/>
  <path d="M371.01,475.46c-.43-1.73-2.26-2.89-3.58-3.22-6.66-1.68-9.9,8.82-18.45,10.79-5.9,1.36-12.09-1.98-13.09-8.11-1.37-8.38,15.94-10.27,21.43-26.38,1.33-3.91-.34-7.49-3.96-9.57-6.53-3.75-14.69-3.99-21.71-.61-8.93,4.3-15.18,13.02-15.99,23.02-.73,9.06,3.43,17.52,10.21,23.19,7.02,5.87,15.83,10.19,25.19,8.96,7.33-.96,13.97-5.1,18.14-11.03,1.5-2.12,2.43-4.58,1.81-7.04ZM326.38,462.01c-1.64-.87-1.1-3.49-.34-4.89,2.63-4.9,6.64-8.78,11.55-11.4,1.88-1,6.25-2.34,7.38-.86,1.58,2.08-1.92,7.64-4.94,9.96-2.5,1.94-10.8,8.24-13.65,7.19Z"/>
</svg>